solid STL generated by MeshLab
  facet normal 9.634867e-003 -8.323764e-001 -5.541270e-001
    outer loop
      vertex  -2.696058e-003 -3.210184e-002 1.107890e-002
      vertex  1.444076e-002 -3.316774e-002 1.297800e-002
      vertex  5.465271e-003 -3.635671e-002 1.761222e-002
    endloop
  endfacet
  facet normal -8.631360e-001 -5.839083e-002 5.015842e-001
    outer loop
      vertex  -3.020194e-002 -5.168961e-003 2.260996e-002
      vertex  -3.336187e-002 -5.315743e-003 1.715521e-002
      vertex  -2.703672e-002 -1.641173e-002 2.674792e-002
    endloop
  endfacet
  facet normal 7.943009e-001 -3.779033e-001 4.756840e-001
    outer loop
      vertex  3.330093e-002 -1.399937e-002 3.100783e-002
      vertex  2.758963e-002 -1.934395e-002 3.629864e-002
      vertex  2.766530e-002 -2.571567e-002 3.111034e-002
    endloop
  endfacet
  facet normal 8.012092e-001 3.505352e-001 4.849628e-001
    outer loop
      vertex  2.887349e-002 -7.501461e-003 3.638668e-002
      vertex  3.236816e-002 -1.697091e-003 2.641768e-002
      vertex  2.771419e-002 8.982705e-005 3.281492e-002
    endloop
  endfacet
  facet normal 8.690934e-001 2.294070e-001 4.382340e-001
    outer loop
      vertex  3.236816e-002 -1.697091e-003 2.641768e-002
      vertex  2.887349e-002 -7.501461e-003 3.638668e-002
      vertex  3.330093e-002 -1.399937e-002 3.100783e-002
    endloop
  endfacet
  facet normal 8.723977e-001 2.275547e-001 4.325981e-001
    outer loop
      vertex  3.446252e-002 -7.498695e-003 2.524584e-002
      vertex  3.236816e-002 -1.697091e-003 2.641768e-002
      vertex  3.330093e-002 -1.399937e-002 3.100783e-002
    endloop
  endfacet
  facet normal 8.198723e-001 -3.907034e-001 4.185216e-001
    outer loop
      vertex  3.330093e-002 -1.399937e-002 3.100783e-002
      vertex  2.766530e-002 -2.571567e-002 3.111034e-002
      vertex  3.222495e-002 -2.272728e-002 2.496786e-002
    endloop
  endfacet
  facet normal 6.834009e-001 -7.121023e-001 1.608524e-001
    outer loop
      vertex  3.222495e-002 -2.272728e-002 2.496786e-002
      vertex  2.766530e-002 -2.571567e-002 3.111034e-002
      vertex  2.586953e-002 -2.994871e-002 1.999999e-002
    endloop
  endfacet
  facet normal 9.894093e-001 -5.940478e-002 1.324392e-001
    outer loop
      vertex  3.446252e-002 -7.498695e-003 2.524584e-002
      vertex  3.330093e-002 -1.399937e-002 3.100783e-002
      vertex  3.503495e-002 -1.288779e-002 1.855212e-002
    endloop
  endfacet
  facet normal 9.724942e-001 -2.011572e-001 1.174340e-001
    outer loop
      vertex  3.503495e-002 -1.288779e-002 1.855212e-002
      vertex  3.330093e-002 -1.399937e-002 3.100783e-002
      vertex  3.222495e-002 -2.272728e-002 2.496786e-002
    endloop
  endfacet
  facet normal 7.926362e-001 6.089361e-001 -3.040578e-002
    outer loop
      vertex  2.893079e-002 2.249938e-003 1.585729e-002
      vertex  2.796791e-002 3.972318e-003 2.525053e-002
      vertex  3.236816e-002 -1.697091e-003 2.641768e-002
    endloop
  endfacet
  facet normal 9.402623e-001 3.404159e-001 -4.871655e-003
    outer loop
      vertex  3.236816e-002 -1.697091e-003 2.641768e-002
      vertex  3.446252e-002 -7.498695e-003 2.524584e-002
      vertex  3.307679e-002 -3.791207e-003 1.685825e-002
    endloop
  endfacet
  facet normal 9.669852e-001 -2.521617e-001 3.679799e-002
    outer loop
      vertex  3.503495e-002 -1.288779e-002 1.855212e-002
      vertex  3.222495e-002 -2.272728e-002 2.496786e-002
      vertex  3.326324e-002 -1.985033e-002 1.739812e-002
    endloop
  endfacet
  facet normal 8.276536e-001 5.579288e-001 -6.086821e-002
    outer loop
      vertex  2.893079e-002 2.249938e-003 1.585729e-002
      vertex  3.236816e-002 -1.697091e-003 2.641768e-002
      vertex  3.307679e-002 -3.791207e-003 1.685825e-002
    endloop
  endfacet
  facet normal 9.776481e-001 1.965539e-001 -7.463817e-002
    outer loop
      vertex  3.307679e-002 -3.791207e-003 1.685825e-002
      vertex  3.446252e-002 -7.498695e-003 2.524584e-002
      vertex  3.503495e-002 -1.288779e-002 1.855212e-002
    endloop
  endfacet
  facet normal 7.853886e-001 -6.066895e-001 -1.228519e-001
    outer loop
      vertex  3.222495e-002 -2.272728e-002 2.496786e-002
      vertex  2.586953e-002 -2.994871e-002 1.999999e-002
      vertex  3.326324e-002 -1.985033e-002 1.739812e-002
    endloop
  endfacet
  facet normal 7.173867e-001 -6.113319e-001 -3.341103e-001
    outer loop
      vertex  3.326324e-002 -1.985033e-002 1.739812e-002
      vertex  2.586953e-002 -2.994871e-002 1.999999e-002
      vertex  2.717533e-002 -2.254856e-002 9.263464e-003
    endloop
  endfacet
  facet normal 9.126529e-001 1.239335e-001 -3.894936e-001
    outer loop
      vertex  3.307679e-002 -3.791207e-003 1.685825e-002
      vertex  3.503495e-002 -1.288779e-002 1.855212e-002
      vertex  3.074246e-002 -1.026991e-002 9.327033e-003
    endloop
  endfacet
  facet normal 8.874696e-001 -1.163034e-001 -4.459497e-001
    outer loop
      vertex  3.074246e-002 -1.026991e-002 9.327033e-003
      vertex  3.503495e-002 -1.288779e-002 1.855212e-002
      vertex  2.973337e-002 -1.772617e-002 9.263461e-003
    endloop
  endfacet
  facet normal 8.906416e-001 -1.558351e-001 -4.271684e-001
    outer loop
      vertex  3.503495e-002 -1.288779e-002 1.855212e-002
      vertex  3.326324e-002 -1.985033e-002 1.739812e-002
      vertex  2.973337e-002 -1.772617e-002 9.263461e-003
    endloop
  endfacet
  facet normal 7.883381e-001 -4.181747e-001 -4.512793e-001
    outer loop
      vertex  3.326324e-002 -1.985033e-002 1.739812e-002
      vertex  2.717533e-002 -2.254856e-002 9.263464e-003
      vertex  2.973337e-002 -1.772617e-002 9.263461e-003
    endloop
  endfacet
  facet normal 6.471742e-001 -6.621954e-001 -3.777072e-001
    outer loop
      vertex  2.717533e-002 -2.254856e-002 9.263464e-003
      vertex  2.586953e-002 -2.994871e-002 1.999999e-002
      vertex  2.226912e-002 -2.923894e-002 1.258658e-002
    endloop
  endfacet
  facet normal 3.810664e-001 -6.200735e-001 -6.857823e-001
    outer loop
      vertex  2.717533e-002 -2.254856e-002 9.263464e-003
      vertex  2.226912e-002 -2.923894e-002 1.258658e-002
      vertex  1.292169e-002 -3.109514e-002 9.070869e-003
    endloop
  endfacet
  facet normal 5.757198e-001 -7.906953e-001 2.082008e-001
    outer loop
      vertex  2.586953e-002 -2.994871e-002 1.999999e-002
      vertex  2.766530e-002 -2.571567e-002 3.111034e-002
      vertex  1.997536e-002 -3.177792e-002 2.935174e-002
    endloop
  endfacet
  facet normal 7.198523e-001 4.000418e-001 -5.672557e-001
    outer loop
      vertex  2.893079e-002 2.249938e-003 1.585729e-002
      vertex  3.307679e-002 -3.791207e-003 1.685825e-002
      vertex  3.074246e-002 -1.026991e-002 9.327033e-003
    endloop
  endfacet
  facet normal 5.347820e-001 -5.297154e-001 6.583387e-001
    outer loop
      vertex  2.766530e-002 -2.571567e-002 3.111034e-002
      vertex  2.758963e-002 -1.934395e-002 3.629864e-002
      vertex  2.026070e-002 -2.651600e-002 3.648128e-002
    endloop
  endfacet
  facet normal 7.179193e-001 -8.296871e-002 6.911643e-001
    outer loop
      vertex  2.758963e-002 -1.934395e-002 3.629864e-002
      vertex  3.330093e-002 -1.399937e-002 3.100783e-002
      vertex  2.887349e-002 -7.501461e-003 3.638668e-002
    endloop
  endfacet
  facet normal -3.383132e-001 -5.823343e-002 9.392300e-001
    outer loop
      vertex  -6.966360e-003 -3.055249e-002 3.310058e-002
      vertex  -2.703672e-002 -1.641173e-002 2.674792e-002
      vertex  -1.511650e-002 -2.914640e-002 3.025205e-002
    endloop
  endfacet
  facet normal -3.451308e-001 -6.709493e-001 6.562864e-001
    outer loop
      vertex  -6.966360e-003 -3.055249e-002 3.310058e-002
      vertex  -1.511650e-002 -2.914640e-002 3.025205e-002
      vertex  -3.918353e-003 -3.405432e-002 3.112341e-002
    endloop
  endfacet
  facet normal -6.474943e-001 -6.710894e-001 3.610959e-001
    outer loop
      vertex  -1.511650e-002 -2.914640e-002 3.025205e-002
      vertex  -2.357472e-002 -2.269067e-002 2.708316e-002
      vertex  -2.309128e-002 -2.603306e-002 2.173828e-002
    endloop
  endfacet
  facet normal -2.019637e-001 -6.089040e-001 7.671027e-001
    outer loop
      vertex  -3.918353e-003 -3.405432e-002 3.112341e-002
      vertex  7.492379e-003 -3.121967e-002 3.637771e-002
      vertex  -6.966360e-003 -3.055249e-002 3.310058e-002
    endloop
  endfacet
  facet normal -4.868438e-001 -2.233439e-001 8.444529e-001
    outer loop
      vertex  -1.511650e-002 -2.914640e-002 3.025205e-002
      vertex  -2.703672e-002 -1.641173e-002 2.674792e-002
      vertex  -2.357472e-002 -2.269067e-002 2.708316e-002
    endloop
  endfacet
  facet normal -8.608049e-001 1.159905e-001 4.955413e-001
    outer loop
      vertex  -3.336187e-002 -5.315743e-003 1.715521e-002
      vertex  -3.020194e-002 -5.168961e-003 2.260996e-002
      vertex  -3.249134e-002 1.050151e-002 1.496507e-002
    endloop
  endfacet
  facet normal -9.080706e-001 3.279270e-001 2.605221e-001
    outer loop
      vertex  -3.154138e-002 1.878026e-002 7.855540e-003
      vertex  -3.304166e-002 1.914639e-002 2.165338e-003
      vertex  -3.249134e-002 1.050151e-002 1.496507e-002
    endloop
  endfacet
  facet normal -9.909564e-001 -9.746496e-002 9.222816e-002
    outer loop
      vertex  -3.512697e-002 3.289199e-003 7.283395e-003
      vertex  -3.393777e-002 -6.621706e-003 9.587183e-003
      vertex  -3.336187e-002 -5.315743e-003 1.715521e-002
    endloop
  endfacet
  facet normal -9.073386e-001 3.292595e-001 2.613905e-001
    outer loop
      vertex  -3.304166e-002 1.914639e-002 2.165338e-003
      vertex  -3.461856e-002 7.978986e-003 1.075856e-002
      vertex  -3.249134e-002 1.050151e-002 1.496507e-002
    endloop
  endfacet
  facet normal -9.863902e-001 -1.443521e-002 1.637861e-001
    outer loop
      vertex  -3.461856e-002 7.978986e-003 1.075856e-002
      vertex  -3.512697e-002 3.289199e-003 7.283395e-003
      vertex  -3.336187e-002 -5.315743e-003 1.715521e-002
    endloop
  endfacet
  facet normal -9.114197e-001 1.052413e-001 3.977918e-001
    outer loop
      vertex  -3.249134e-002 1.050151e-002 1.496507e-002
      vertex  -3.461856e-002 7.978986e-003 1.075856e-002
      vertex  -3.336187e-002 -5.315743e-003 1.715521e-002
    endloop
  endfacet
  facet normal -9.658555e-001 4.464531e-002 -2.552059e-001
    outer loop
      vertex  -3.512697e-002 3.289199e-003 7.283395e-003
      vertex  -3.304166e-002 1.914639e-002 2.165338e-003
      vertex  -3.190412e-002 1.249011e-002 -3.304261e-003
    endloop
  endfacet
  facet normal -9.031647e-001 -1.970280e-001 -3.814099e-001
    outer loop
      vertex  -3.393777e-002 -6.621706e-003 9.587183e-003
      vertex  -3.512697e-002 3.289199e-003 7.283395e-003
      vertex  -3.251824e-002 3.077802e-003 1.215226e-003
    endloop
  endfacet
  facet normal -9.921089e-001 1.235148e-001 -2.154271e-002
    outer loop
      vertex  -3.461856e-002 7.978986e-003 1.075856e-002
      vertex  -3.304166e-002 1.914639e-002 2.165338e-003
      vertex  -3.512697e-002 3.289199e-003 7.283395e-003
    endloop
  endfacet
  facet normal -8.986917e-001 6.421883e-002 4.338540e-001
    outer loop
      vertex  -3.234522e-002 -7.158915e-004 -1.466792e-002
      vertex  -3.375308e-002 1.588202e-002 -2.004100e-002
      vertex  -3.505506e-002 1.875109e-003 -2.066465e-002
    endloop
  endfacet
  facet normal -9.331656e-001 1.818764e-001 3.100372e-001
    outer loop
      vertex  -3.082781e-002 2.162652e-002 -1.460628e-002
      vertex  -3.375308e-002 1.588202e-002 -2.004100e-002
      vertex  -3.162503e-002 6.001687e-003 -7.839827e-003
    endloop
  endfacet
  facet normal -9.891739e-001 -3.802031e-002 1.417367e-001
    outer loop
      vertex  -3.162503e-002 6.001687e-003 -7.839827e-003
      vertex  -3.375308e-002 1.588202e-002 -2.004100e-002
      vertex  -3.234522e-002 -7.158915e-004 -1.466792e-002
    endloop
  endfacet
  facet normal -9.964558e-001 1.499772e-002 -8.276947e-002
    outer loop
      vertex  -3.190412e-002 1.249011e-002 -3.304261e-003
      vertex  -3.082781e-002 2.162652e-002 -1.460628e-002
      vertex  -3.162503e-002 6.001687e-003 -7.839827e-003
    endloop
  endfacet
  facet normal -9.955910e-001 2.107033e-002 -9.140353e-002
    outer loop
      vertex  -3.190412e-002 1.249011e-002 -3.304261e-003
      vertex  -3.162503e-002 6.001687e-003 -7.839827e-003
      vertex  -3.251824e-002 3.077802e-003 1.215226e-003
    endloop
  endfacet
  facet normal -9.672548e-001 4.057493e-002 -2.505434e-001
    outer loop
      vertex  -3.190412e-002 1.249011e-002 -3.304261e-003
      vertex  -3.304166e-002 1.914639e-002 2.165338e-003
      vertex  -3.059189e-002 2.028547e-002 -7.107844e-003
    endloop
  endfacet
  facet normal -9.128852e-001 -1.267596e-001 -3.880367e-001
    outer loop
      vertex  -3.512697e-002 3.289199e-003 7.283395e-003
      vertex  -3.190412e-002 1.249011e-002 -3.304261e-003
      vertex  -3.251824e-002 3.077802e-003 1.215226e-003
    endloop
  endfacet
  facet normal -9.603278e-001 -1.413788e-001 2.403798e-001
    outer loop
      vertex  -3.162503e-002 6.001687e-003 -7.839827e-003
      vertex  -3.234522e-002 -7.158915e-004 -1.466792e-002
      vertex  -3.034559e-002 -5.417771e-003 -9.444728e-003
    endloop
  endfacet
  facet normal -9.782081e-001 1.968624e-001 6.598537e-002
    outer loop
      vertex  -3.059189e-002 2.028547e-002 -7.107844e-003
      vertex  -3.082781e-002 2.162652e-002 -1.460628e-002
      vertex  -3.190412e-002 1.249011e-002 -3.304261e-003
    endloop
  endfacet
  facet normal -9.666396e-001 -2.000590e-001 -1.599506e-001
    outer loop
      vertex  -3.251824e-002 3.077802e-003 1.215226e-003
      vertex  -3.162503e-002 6.001687e-003 -7.839827e-003
      vertex  -3.073145e-002 -4.653855e-003 8.739772e-005
    endloop
  endfacet
  facet normal -9.240651e-001 -1.631277e-001 -3.456778e-001
    outer loop
      vertex  -3.393777e-002 -6.621706e-003 9.587183e-003
      vertex  -3.251824e-002 3.077802e-003 1.215226e-003
      vertex  -3.073145e-002 -4.653855e-003 8.739772e-005
    endloop
  endfacet
  facet normal -9.528506e-001 -2.408731e-001 -1.845422e-001
    outer loop
      vertex  -3.432199e-002 -8.089546e-004 -2.610045e-002
      vertex  -3.133864e-002 -9.969028e-003 -2.954827e-002
      vertex  -3.303871e-002 -1.056930e-002 -1.998676e-002
    endloop
  endfacet
  facet normal -9.877096e-001 3.752038e-002 -1.517295e-001
    outer loop
      vertex  -3.432199e-002 -8.089546e-004 -2.610045e-002
      vertex  -3.505506e-002 1.875109e-003 -2.066465e-002
      vertex  -3.407034e-002 1.221929e-002 -2.451693e-002
    endloop
  endfacet
  facet normal -9.853014e-001 -1.625142e-001 -5.263260e-002
    outer loop
      vertex  -3.505506e-002 1.875109e-003 -2.066465e-002
      vertex  -3.432199e-002 -8.089546e-004 -2.610045e-002
      vertex  -3.303871e-002 -1.056930e-002 -1.998676e-002
    endloop
  endfacet
  facet normal -9.956713e-001 9.278896e-002 -5.356821e-003
    outer loop
      vertex  -3.505506e-002 1.875109e-003 -2.066465e-002
      vertex  -3.375308e-002 1.588202e-002 -2.004100e-002
      vertex  -3.407034e-002 1.221929e-002 -2.451693e-002
    endloop
  endfacet
  facet normal -9.234157e-001 -1.299476e-001 3.611332e-001
    outer loop
      vertex  -3.303871e-002 -1.056930e-002 -1.998676e-002
      vertex  -3.234522e-002 -7.158915e-004 -1.466792e-002
      vertex  -3.505506e-002 1.875109e-003 -2.066465e-002
    endloop
  endfacet
  facet normal -8.061118e-001 8.672013e-002 -5.853747e-001
    outer loop
      vertex  -3.432199e-002 -8.089546e-004 -2.610045e-002
      vertex  -3.407034e-002 1.221929e-002 -2.451693e-002
      vertex  -3.236818e-002 4.288141e-003 -2.803590e-002
    endloop
  endfacet
  facet normal -5.254978e-001 5.213336e-002 -8.491962e-001
    outer loop
      vertex  -2.940459e-002 -7.518146e-003 -3.059463e-002
      vertex  -3.133864e-002 -9.969028e-003 -2.954827e-002
      vertex  -3.236818e-002 4.288141e-003 -2.803590e-002
    endloop
  endfacet
  facet normal -7.293202e-001 1.987898e-002 -6.838837e-001
    outer loop
      vertex  -3.432199e-002 -8.089546e-004 -2.610045e-002
      vertex  -3.236818e-002 4.288141e-003 -2.803590e-002
      vertex  -3.133864e-002 -9.969028e-003 -2.954827e-002
    endloop
  endfacet
  facet normal -2.874357e-001 -8.538148e-001 4.340287e-001
    outer loop
      vertex  -1.419880e-002 -3.184253e-002 -1.678450e-002
      vertex  -3.741122e-003 -3.550735e-002 -1.706827e-002
      vertex  -5.985829e-003 -3.057497e-002 -8.851933e-003
    endloop
  endfacet
  facet normal -2.736342e-001 -8.456139e-001 -4.583245e-001
    outer loop
      vertex  -3.309584e-003 -3.517305e-002 -2.835494e-002
      vertex  -1.042169e-002 -3.222942e-002 -2.953981e-002
      vertex  -5.692493e-003 -3.100820e-002 -3.461647e-002
    endloop
  endfacet
  facet normal -6.922423e-001 -6.391443e-001 -3.351047e-001
    outer loop
      vertex  -2.742848e-002 -2.080771e-002 -2.429748e-002
      vertex  -2.370759e-002 -2.142907e-002 -3.079878e-002
      vertex  -1.976468e-002 -2.734723e-002 -2.765615e-002
    endloop
  endfacet
  facet normal -8.925783e-001 -4.114026e-001 -1.845313e-001
    outer loop
      vertex  -3.133864e-002 -9.969028e-003 -2.954827e-002
      vertex  -2.742848e-002 -2.080771e-002 -2.429748e-002
      vertex  -3.303871e-002 -1.056930e-002 -1.998676e-002
    endloop
  endfacet
  facet normal -4.870481e-001 -8.405660e-001 -2.371351e-001
    outer loop
      vertex  -1.976468e-002 -2.734723e-002 -2.765615e-002
      vertex  -1.042169e-002 -3.222942e-002 -2.953981e-002
      vertex  -1.087865e-002 -3.395574e-002 -2.248202e-002
    endloop
  endfacet
  facet normal -3.358243e-001 -9.097041e-001 -2.442549e-001
    outer loop
      vertex  -1.087865e-002 -3.395574e-002 -2.248202e-002
      vertex  -1.042169e-002 -3.222942e-002 -2.953981e-002
      vertex  -3.309584e-003 -3.517305e-002 -2.835494e-002
    endloop
  endfacet
  facet normal -6.756951e-001 -7.259120e-001 -1.284053e-001
    outer loop
      vertex  -2.742848e-002 -2.080771e-002 -2.429748e-002
      vertex  -1.976468e-002 -2.734723e-002 -2.765615e-002
      vertex  -2.157449e-002 -2.737452e-002 -1.797828e-002
    endloop
  endfacet
  facet normal -5.530316e-001 -8.264217e-001 -1.057500e-001
    outer loop
      vertex  -2.157449e-002 -2.737452e-002 -1.797828e-002
      vertex  -1.976468e-002 -2.734723e-002 -2.765615e-002
      vertex  -1.087865e-002 -3.395574e-002 -2.248202e-002
    endloop
  endfacet
  facet normal -1.859960e-001 -9.818836e-001 -3.619388e-002
    outer loop
      vertex  -1.087865e-002 -3.395574e-002 -2.248202e-002
      vertex  -3.309584e-003 -3.517305e-002 -2.835494e-002
      vertex  -3.741122e-003 -3.550735e-002 -1.706827e-002
    endloop
  endfacet
  facet normal -8.704896e-001 -4.910527e-001 3.339356e-002
    outer loop
      vertex  -3.303871e-002 -1.056930e-002 -1.998676e-002
      vertex  -2.742848e-002 -2.080771e-002 -2.429748e-002
      vertex  -3.008636e-002 -1.561582e-002 -1.723526e-002
    endloop
  endfacet
  facet normal -5.197255e-001 -8.542191e-001 1.396757e-002
    outer loop
      vertex  -2.157449e-002 -2.737452e-002 -1.797828e-002
      vertex  -1.087865e-002 -3.395574e-002 -2.248202e-002
      vertex  -1.419880e-002 -3.184253e-002 -1.678450e-002
    endloop
  endfacet
  facet normal -3.227435e-001 -9.331972e-001 1.580489e-001
    outer loop
      vertex  -1.419880e-002 -3.184253e-002 -1.678450e-002
      vertex  -1.087865e-002 -3.395574e-002 -2.248202e-002
      vertex  -3.741122e-003 -3.550735e-002 -1.706827e-002
    endloop
  endfacet
  facet normal -7.991673e-001 -5.867518e-001 1.305904e-001
    outer loop
      vertex  -2.157449e-002 -2.737452e-002 -1.797828e-002
      vertex  -3.008636e-002 -1.561582e-002 -1.723526e-002
      vertex  -2.742848e-002 -2.080771e-002 -2.429748e-002
    endloop
  endfacet
  facet normal -4.831125e-001 -7.506161e-001 -4.507524e-001
    outer loop
      vertex  -1.611764e-002 -2.679361e-002 -3.248693e-002
      vertex  -1.042169e-002 -3.222942e-002 -2.953981e-002
      vertex  -1.976468e-002 -2.734723e-002 -2.765615e-002
    endloop
  endfacet
  facet normal -1.892162e-001 -9.812643e-001 -3.629864e-002
    outer loop
      vertex  -3.741122e-003 -3.550735e-002 -1.706827e-002
      vertex  -3.309584e-003 -3.517305e-002 -2.835494e-002
      vertex  3.480213e-003 -3.665573e-002 -2.366701e-002
    endloop
  endfacet
  facet normal -8.361691e-001 -2.137942e-001 5.050875e-001
    outer loop
      vertex  -3.234522e-002 -7.158915e-004 -1.466792e-002
      vertex  -3.303871e-002 -1.056930e-002 -1.998676e-002
      vertex  -3.008636e-002 -1.561582e-002 -1.723526e-002
    endloop
  endfacet
  facet normal -7.253627e-001 -5.630580e-001 3.959982e-001
    outer loop
      vertex  -2.728216e-002 -1.332913e-002 -8.847354e-003
      vertex  -3.008636e-002 -1.561582e-002 -1.723526e-002
      vertex  -2.401820e-002 -1.867888e-002 -1.047529e-002
    endloop
  endfacet
  facet normal -9.618203e-001 -1.811605e-001 2.051399e-001
    outer loop
      vertex  -3.234522e-002 -7.158915e-004 -1.466792e-002
      vertex  -3.008636e-002 -1.561582e-002 -1.723526e-002
      vertex  -3.034559e-002 -5.417771e-003 -9.444728e-003
    endloop
  endfacet
  facet normal -8.731846e-001 -3.096964e-001 3.763465e-001
    outer loop
      vertex  -3.034559e-002 -5.417771e-003 -9.444728e-003
      vertex  -3.008636e-002 -1.561582e-002 -1.723526e-002
      vertex  -2.728216e-002 -1.332913e-002 -8.847354e-003
    endloop
  endfacet
  facet normal -9.322712e-001 -3.616542e-001 -8.754709e-003
    outer loop
      vertex  -3.034559e-002 -5.417771e-003 -9.444728e-003
      vertex  -2.728216e-002 -1.332913e-002 -8.847354e-003
      vertex  -3.073145e-002 -4.653855e-003 8.739772e-005
    endloop
  endfacet
  facet normal -9.937664e-001 -1.068924e-001 -3.166094e-002
    outer loop
      vertex  -3.034559e-002 -5.417771e-003 -9.444728e-003
      vertex  -3.073145e-002 -4.653855e-003 8.739772e-005
      vertex  -3.162503e-002 6.001687e-003 -7.839827e-003
    endloop
  endfacet
  facet normal -8.730420e-001 -4.722641e-001 1.215086e-001
    outer loop
      vertex  -3.073145e-002 -4.653855e-003 8.739772e-005
      vertex  -2.728216e-002 -1.332913e-002 -8.847354e-003
      vertex  -2.503131e-002 -1.576005e-002 -2.123105e-003
    endloop
  endfacet
  facet normal -8.888363e-001 -4.194849e-001 -1.843976e-001
    outer loop
      vertex  -3.073145e-002 -4.653855e-003 8.739772e-005
      vertex  -2.503131e-002 -1.576005e-002 -2.123105e-003
      vertex  -2.631665e-002 -1.679044e-002 6.416546e-003
    endloop
  endfacet
  facet normal -6.815996e-001 -6.260194e-001 -3.788426e-001
    outer loop
      vertex  -3.033666e-002 -1.589306e-002 1.216633e-002
      vertex  -2.631665e-002 -1.679044e-002 6.416546e-003
      vertex  -2.364439e-002 -2.509327e-002 1.532874e-002
    endloop
  endfacet
  facet normal -7.440045e-001 -5.011215e-001 -4.419666e-001
    outer loop
      vertex  -3.073145e-002 -4.653855e-003 8.739772e-005
      vertex  -2.631665e-002 -1.679044e-002 6.416546e-003
      vertex  -3.033666e-002 -1.589306e-002 1.216633e-002
    endloop
  endfacet
  facet normal -7.081727e-001 -7.004151e-001 8.893810e-002
    outer loop
      vertex  -1.425424e-002 -2.769580e-002 -1.030807e-002
      vertex  -1.788329e-002 -2.266424e-002 4.206378e-004
      vertex  -2.503131e-002 -1.576005e-002 -2.123105e-003
    endloop
  endfacet
  facet normal -6.700125e-001 -7.223471e-001 1.711659e-001
    outer loop
      vertex  -2.401820e-002 -1.867888e-002 -1.047529e-002
      vertex  -1.425424e-002 -2.769580e-002 -1.030807e-002
      vertex  -2.503131e-002 -1.576005e-002 -2.123105e-003
    endloop
  endfacet
  facet normal -6.473678e-001 -7.389818e-001 -1.866033e-001
    outer loop
      vertex  -2.503131e-002 -1.576005e-002 -2.123105e-003
      vertex  -1.788329e-002 -2.266424e-002 4.206378e-004
      vertex  -2.631665e-002 -1.679044e-002 6.416546e-003
    endloop
  endfacet
  facet normal -6.550760e-001 -7.256452e-001 -2.105099e-001
    outer loop
      vertex  -2.631665e-002 -1.679044e-002 6.416546e-003
      vertex  -1.788329e-002 -2.266424e-002 4.206378e-004
      vertex  -1.636648e-002 -2.637574e-002 8.494406e-003
    endloop
  endfacet
  facet normal -5.602632e-001 -6.831352e-001 -4.684351e-001
    outer loop
      vertex  -1.636648e-002 -2.637574e-002 8.494406e-003
      vertex  -2.364439e-002 -2.509327e-002 1.532874e-002
      vertex  -2.631665e-002 -1.679044e-002 6.416546e-003
    endloop
  endfacet
  facet normal -7.288242e-001 -5.530846e-001 4.036244e-001
    outer loop
      vertex  -3.008636e-002 -1.561582e-002 -1.723526e-002
      vertex  -2.157449e-002 -2.737452e-002 -1.797828e-002
      vertex  -2.401820e-002 -1.867888e-002 -1.047529e-002
    endloop
  endfacet
  facet normal -5.133929e-001 -7.246956e-001 4.596130e-001
    outer loop
      vertex  -2.157449e-002 -2.737452e-002 -1.797828e-002
      vertex  -1.419880e-002 -3.184253e-002 -1.678450e-002
      vertex  -1.425424e-002 -2.769580e-002 -1.030807e-002
    endloop
  endfacet
  facet normal -5.759405e-001 -8.124720e-001 -9.045292e-002
    outer loop
      vertex  -1.788329e-002 -2.266424e-002 4.206378e-004
      vertex  -1.098844e-002 -2.727045e-002 -2.106710e-003
      vertex  -1.025956e-002 -2.873714e-002 6.426516e-003
    endloop
  endfacet
  facet normal -5.808555e-001 -6.191785e-001 5.284174e-001
    outer loop
      vertex  -2.157449e-002 -2.737452e-002 -1.797828e-002
      vertex  -1.425424e-002 -2.769580e-002 -1.030807e-002
      vertex  -2.401820e-002 -1.867888e-002 -1.047529e-002
    endloop
  endfacet
  facet normal -8.385934e-001 -5.378862e-001 8.625393e-002
    outer loop
      vertex  -2.728216e-002 -1.332913e-002 -8.847354e-003
      vertex  -2.401820e-002 -1.867888e-002 -1.047529e-002
      vertex  -2.503131e-002 -1.576005e-002 -2.123105e-003
    endloop
  endfacet
  facet normal -5.253195e-001 -7.396786e-001 -4.206129e-001
    outer loop
      vertex  -1.636648e-002 -2.637574e-002 8.494406e-003
      vertex  -1.576044e-002 -3.090219e-002 1.569759e-002
      vertex  -2.364439e-002 -2.509327e-002 1.532874e-002
    endloop
  endfacet
  facet normal -8.279868e-001 -4.237608e-001 -3.672392e-001
    outer loop
      vertex  -3.393777e-002 -6.621706e-003 9.587183e-003
      vertex  -3.073145e-002 -4.653855e-003 8.739772e-005
      vertex  -3.033666e-002 -1.589306e-002 1.216633e-002
    endloop
  endfacet
  facet normal -3.324292e-001 -9.329470e-001 -1.382049e-001
    outer loop
      vertex  -1.576044e-002 -3.090219e-002 1.569759e-002
      vertex  -8.238859e-003 -3.344078e-002 1.474232e-002
      vertex  -3.429377e-003 -3.585383e-002 1.946310e-002
    endloop
  endfacet
  facet normal -3.405759e-001 -9.334930e-001 -1.122448e-001
    outer loop
      vertex  -1.576044e-002 -3.090219e-002 1.569759e-002
      vertex  -3.429377e-003 -3.585383e-002 1.946310e-002
      vertex  -1.001249e-002 -3.407480e-002 2.464231e-002
    endloop
  endfacet
  facet normal -5.898056e-001 -8.047529e-001 -6.709835e-002
    outer loop
      vertex  -2.364439e-002 -2.509327e-002 1.532874e-002
      vertex  -1.576044e-002 -3.090219e-002 1.569759e-002
      vertex  -2.309128e-002 -2.603306e-002 2.173828e-002
    endloop
  endfacet
  facet normal -9.352686e-001 -3.513238e-001 4.294459e-002
    outer loop
      vertex  -3.016716e-002 -1.535485e-002 2.026084e-002
      vertex  -3.393777e-002 -6.621706e-003 9.587183e-003
      vertex  -3.033666e-002 -1.589306e-002 1.216633e-002
    endloop
  endfacet
  facet normal -8.057305e-001 -5.920303e-001 -1.727496e-002
    outer loop
      vertex  -2.309128e-002 -2.603306e-002 2.173828e-002
      vertex  -3.033666e-002 -1.589306e-002 1.216633e-002
      vertex  -2.364439e-002 -2.509327e-002 1.532874e-002
    endloop
  endfacet
  facet normal -9.561920e-001 -2.674958e-001 1.189237e-001
    outer loop
      vertex  -3.336187e-002 -5.315743e-003 1.715521e-002
      vertex  -3.393777e-002 -6.621706e-003 9.587183e-003
      vertex  -3.016716e-002 -1.535485e-002 2.026084e-002
    endloop
  endfacet
  facet normal -8.357982e-001 -5.463913e-001 5.383189e-002
    outer loop
      vertex  -3.016716e-002 -1.535485e-002 2.026084e-002
      vertex  -3.033666e-002 -1.589306e-002 1.216633e-002
      vertex  -2.309128e-002 -2.603306e-002 2.173828e-002
    endloop
  endfacet
  facet normal -1.889872e-001 -9.773257e-001 9.549034e-002
    outer loop
      vertex  -1.001249e-002 -3.407480e-002 2.464231e-002
      vertex  -3.429377e-003 -3.585383e-002 1.946310e-002
      vertex  2.745138e-003 -3.631882e-002 2.692410e-002
    endloop
  endfacet
  facet normal -5.297831e-001 -8.471916e-001 3.995145e-002
    outer loop
      vertex  -2.309128e-002 -2.603306e-002 2.173828e-002
      vertex  -1.576044e-002 -3.090219e-002 1.569759e-002
      vertex  -1.001249e-002 -3.407480e-002 2.464231e-002
    endloop
  endfacet
  facet normal -2.035599e-001 -9.595608e-001 1.944386e-001
    outer loop
      vertex  -1.001249e-002 -3.407480e-002 2.464231e-002
      vertex  2.745138e-003 -3.631882e-002 2.692410e-002
      vertex  -3.918353e-003 -3.405432e-002 3.112341e-002
    endloop
  endfacet
  facet normal -8.233815e-001 -5.116467e-001 2.454803e-001
    outer loop
      vertex  -3.016716e-002 -1.535485e-002 2.026084e-002
      vertex  -2.309128e-002 -2.603306e-002 2.173828e-002
      vertex  -2.357472e-002 -2.269067e-002 2.708316e-002
    endloop
  endfacet
  facet normal -5.457287e-001 -8.099081e-001 2.150093e-001
    outer loop
      vertex  -1.511650e-002 -2.914640e-002 3.025205e-002
      vertex  -2.309128e-002 -2.603306e-002 2.173828e-002
      vertex  -1.001249e-002 -3.407480e-002 2.464231e-002
    endloop
  endfacet
  facet normal -8.989745e-001 -1.599364e-001 4.077563e-001
    outer loop
      vertex  -2.703672e-002 -1.641173e-002 2.674792e-002
      vertex  -3.336187e-002 -5.315743e-003 1.715521e-002
      vertex  -3.016716e-002 -1.535485e-002 2.026084e-002
    endloop
  endfacet
  facet normal -8.338871e-001 -4.421396e-001 3.303709e-001
    outer loop
      vertex  -2.357472e-002 -2.269067e-002 2.708316e-002
      vertex  -2.703672e-002 -1.641173e-002 2.674792e-002
      vertex  -3.016716e-002 -1.535485e-002 2.026084e-002
    endloop
  endfacet
  facet normal -1.248973e-001 -9.292353e-001 -3.477390e-001
    outer loop
      vertex  5.465271e-003 -3.635671e-002 1.761222e-002
      vertex  -3.429377e-003 -3.585383e-002 1.946310e-002
      vertex  -8.238859e-003 -3.344078e-002 1.474232e-002
    endloop
  endfacet
  facet normal -3.964095e-001 -8.378201e-001 3.753891e-001
    outer loop
      vertex  -1.511650e-002 -2.914640e-002 3.025205e-002
      vertex  -1.001249e-002 -3.407480e-002 2.464231e-002
      vertex  -3.918353e-003 -3.405432e-002 3.112341e-002
    endloop
  endfacet
  facet normal -9.132923e-002 -8.827776e-001 -4.608281e-001
    outer loop
      vertex  5.465271e-003 -3.635671e-002 1.761222e-002
      vertex  -8.238859e-003 -3.344078e-002 1.474232e-002
      vertex  -2.696058e-003 -3.210184e-002 1.107890e-002
    endloop
  endfacet
  facet normal 4.536985e-001 -7.255970e-001 5.173652e-001
    outer loop
      vertex  2.026070e-002 -2.651600e-002 3.648128e-002
      vertex  1.997536e-002 -3.177792e-002 2.935174e-002
      vertex  2.766530e-002 -2.571567e-002 3.111034e-002
    endloop
  endfacet
  facet normal 2.817989e-001 -7.773402e-001 5.624336e-001
    outer loop
      vertex  1.997536e-002 -3.177792e-002 2.935174e-002
      vertex  2.026070e-002 -2.651600e-002 3.648128e-002
      vertex  7.492379e-003 -3.121967e-002 3.637771e-002
    endloop
  endfacet
  facet normal 5.534819e-005 -8.801425e-001 4.747095e-001
    outer loop
      vertex  2.745138e-003 -3.631882e-002 2.692410e-002
      vertex  7.492379e-003 -3.121967e-002 3.637771e-002
      vertex  -3.918353e-003 -3.405432e-002 3.112341e-002
    endloop
  endfacet
  facet normal 1.893287e-001 -8.934246e-001 4.073659e-001
    outer loop
      vertex  1.997536e-002 -3.177792e-002 2.935174e-002
      vertex  7.492379e-003 -3.121967e-002 3.637771e-002
      vertex  1.365918e-002 -3.560981e-002 2.388326e-002
    endloop
  endfacet
  facet normal 1.700318e-001 -9.004648e-001 4.003154e-001
    outer loop
      vertex  1.365918e-002 -3.560981e-002 2.388326e-002
      vertex  7.492379e-003 -3.121967e-002 3.637771e-002
      vertex  2.745138e-003 -3.631882e-002 2.692410e-002
    endloop
  endfacet
  facet normal 4.460927e-001 -8.885235e-001 1.073649e-001
    outer loop
      vertex  2.586953e-002 -2.994871e-002 1.999999e-002
      vertex  1.997536e-002 -3.177792e-002 2.935174e-002
      vertex  1.365918e-002 -3.560981e-002 2.388326e-002
    endloop
  endfacet
  facet normal 7.174502e-002 -9.971094e-001 2.501457e-002
    outer loop
      vertex  1.365918e-002 -3.560981e-002 2.388326e-002
      vertex  2.745138e-003 -3.631882e-002 2.692410e-002
      vertex  5.465271e-003 -3.635671e-002 1.761222e-002
    endloop
  endfacet
  facet normal -5.918597e-002 -9.981593e-001 -1.322796e-002
    outer loop
      vertex  5.465271e-003 -3.635671e-002 1.761222e-002
      vertex  2.745138e-003 -3.631882e-002 2.692410e-002
      vertex  -3.429377e-003 -3.585383e-002 1.946310e-002
    endloop
  endfacet
  facet normal 2.368276e-001 -9.515527e-001 -1.961124e-001
    outer loop
      vertex  1.444076e-002 -3.316774e-002 1.297800e-002
      vertex  1.365918e-002 -3.560981e-002 2.388326e-002
      vertex  5.465271e-003 -3.635671e-002 1.761222e-002
    endloop
  endfacet
  facet normal 3.666788e-001 -9.131218e-001 -1.781999e-001
    outer loop
      vertex  2.586953e-002 -2.994871e-002 1.999999e-002
      vertex  1.365918e-002 -3.560981e-002 2.388326e-002
      vertex  1.444076e-002 -3.316774e-002 1.297800e-002
    endloop
  endfacet
  facet normal 4.183963e-001 -8.621462e-001 -2.857420e-001
    outer loop
      vertex  2.226912e-002 -2.923894e-002 1.258658e-002
      vertex  2.586953e-002 -2.994871e-002 1.999999e-002
      vertex  1.444076e-002 -3.316774e-002 1.297800e-002
    endloop
  endfacet
  facet normal 3.551213e-001 -7.616056e-001 -5.420754e-001
    outer loop
      vertex  2.226912e-002 -2.923894e-002 1.258658e-002
      vertex  1.444076e-002 -3.316774e-002 1.297800e-002
      vertex  1.292169e-002 -3.109514e-002 9.070869e-003
    endloop
  endfacet
  facet normal 7.071379e-001 6.191406e-001 3.414978e-001
    outer loop
      vertex  2.771419e-002 8.982705e-005 3.281492e-002
      vertex  3.236816e-002 -1.697091e-003 2.641768e-002
      vertex  2.796791e-002 3.972318e-003 2.525053e-002
    endloop
  endfacet
  facet normal -5.449074e-001 2.874050e-001 7.877019e-001
    outer loop
      vertex  2.887349e-002 -7.501461e-003 3.638668e-002
      vertex  2.771419e-002 8.982705e-005 3.281492e-002
      vertex  2.730686e-002 -8.156884e-003 3.554208e-002
    endloop
  endfacet
  facet normal -4.890529e-001 4.654305e-002 8.710115e-001
    outer loop
      vertex  2.887349e-002 -7.501461e-003 3.638668e-002
      vertex  2.730686e-002 -8.156884e-003 3.554208e-002
      vertex  2.758963e-002 -1.934395e-002 3.629864e-002
    endloop
  endfacet
  facet normal -5.702956e-001 -6.480168e-001 -5.048140e-001
    outer loop
      vertex  -2.370759e-002 -2.142907e-002 -3.079878e-002
      vertex  -1.611764e-002 -2.679361e-002 -3.248693e-002
      vertex  -1.976468e-002 -2.734723e-002 -2.765615e-002
    endloop
  endfacet
  facet normal -7.818011e-001 -4.767350e-001 -4.018841e-001
    outer loop
      vertex  -2.370759e-002 -2.142907e-002 -3.079878e-002
      vertex  -2.742848e-002 -2.080771e-002 -2.429748e-002
      vertex  -3.133864e-002 -9.969028e-003 -2.954827e-002
    endloop
  endfacet
  facet normal -4.065280e-001 -3.040482e-001 -8.615624e-001
    outer loop
      vertex  -1.611764e-002 -2.679361e-002 -3.248693e-002
      vertex  -2.370759e-002 -2.142907e-002 -3.079878e-002
      vertex  -2.196318e-002 -2.056549e-002 -3.192664e-002
    endloop
  endfacet
  facet normal -4.558356e-001 -2.091292e-001 -8.651466e-001
    outer loop
      vertex  -2.196318e-002 -2.056549e-002 -3.192664e-002
      vertex  -2.370759e-002 -2.142907e-002 -3.079878e-002
      vertex  -3.133864e-002 -9.969028e-003 -2.954827e-002
    endloop
  endfacet
  facet normal -2.579593e-001 -1.563421e-001 -9.534223e-001
    outer loop
      vertex  -5.692493e-003 -3.100820e-002 -3.461647e-002
      vertex  -1.611764e-002 -2.679361e-002 -3.248693e-002
      vertex  -2.196318e-002 -2.056549e-002 -3.192664e-002
    endloop
  endfacet
  facet normal -4.068297e-001 -7.265282e-001 -5.537566e-001
    outer loop
      vertex  -5.692493e-003 -3.100820e-002 -3.461647e-002
      vertex  -1.042169e-002 -3.222942e-002 -2.953981e-002
      vertex  -1.611764e-002 -2.679361e-002 -3.248693e-002
    endloop
  endfacet
  facet normal -3.604093e-001 -1.110029e-001 -9.261660e-001
    outer loop
      vertex  -3.133864e-002 -9.969028e-003 -2.954827e-002
      vertex  -2.940459e-002 -7.518146e-003 -3.059463e-002
      vertex  -2.196318e-002 -2.056549e-002 -3.192664e-002
    endloop
  endfacet
  facet normal 7.173641e-001 -4.654528e-001 5.184036e-001
    outer loop
      vertex  3.278412e-002 -1.894476e-002 -1.495570e-002
      vertex  2.444524e-002 -2.534587e-002 -9.163698e-003
      vertex  2.793584e-002 -2.640462e-002 -1.494458e-002
    endloop
  endfacet
  facet normal 8.011980e-001 2.689523e-001 5.345526e-001
    outer loop
      vertex  2.941807e-002 -4.793535e-004 -1.267151e-002
      vertex  3.028337e-002 -1.112041e-002 -8.614559e-003
      vertex  3.326370e-002 -9.538224e-003 -1.387758e-002
    endloop
  endfacet
  facet normal 9.318075e-001 -8.786928e-002 3.521560e-001
    outer loop
      vertex  3.326370e-002 -9.538224e-003 -1.387758e-002
      vertex  3.278412e-002 -1.894476e-002 -1.495570e-002
      vertex  3.506033e-002 -1.209748e-002 -1.927008e-002
    endloop
  endfacet
  facet normal 8.172709e-001 5.318030e-001 2.219323e-001
    outer loop
      vertex  2.905737e-002 3.618399e-003 -2.116241e-002
      vertex  2.941807e-002 -4.793535e-004 -1.267151e-002
      vertex  3.326818e-002 -3.031758e-003 -2.073346e-002
    endloop
  endfacet
  facet normal 8.872359e-001 3.343255e-001 3.178664e-001
    outer loop
      vertex  2.941807e-002 -4.793535e-004 -1.267151e-002
      vertex  3.326370e-002 -9.538224e-003 -1.387758e-002
      vertex  3.326818e-002 -3.031758e-003 -2.073346e-002
    endloop
  endfacet
  facet normal 9.517413e-001 2.222999e-001 2.115924e-001
    outer loop
      vertex  3.326818e-002 -3.031758e-003 -2.073346e-002
      vertex  3.326370e-002 -9.538224e-003 -1.387758e-002
      vertex  3.506033e-002 -1.209748e-002 -1.927008e-002
    endloop
  endfacet
  facet normal 8.183385e-001 -5.315245e-001 2.186408e-001
    outer loop
      vertex  3.278412e-002 -1.894476e-002 -1.495570e-002
      vertex  2.793584e-002 -2.640462e-002 -1.494458e-002
      vertex  3.102901e-002 -2.485075e-002 -2.274432e-002
    endloop
  endfacet
  facet normal 6.771077e-001 -7.253585e-001 1.240168e-001
    outer loop
      vertex  3.102901e-002 -2.485075e-002 -2.274432e-002
      vertex  2.793584e-002 -2.640462e-002 -1.494458e-002
      vertex  2.555453e-002 -3.021687e-002 -2.424050e-002
    endloop
  endfacet
  facet normal 9.594305e-001 -2.718668e-001 7.470999e-002
    outer loop
      vertex  3.506033e-002 -1.209748e-002 -1.927008e-002
      vertex  3.278412e-002 -1.894476e-002 -1.495570e-002
      vertex  3.441555e-002 -1.618786e-002 -2.587446e-002
    endloop
  endfacet
  facet normal 9.363482e-001 -3.471629e-001 5.224952e-002
    outer loop
      vertex  3.441555e-002 -1.618786e-002 -2.587446e-002
      vertex  3.278412e-002 -1.894476e-002 -1.495570e-002
      vertex  3.102901e-002 -2.485075e-002 -2.274432e-002
    endloop
  endfacet
  facet normal 9.814136e-001 1.871769e-001 -4.233414e-002
    outer loop
      vertex  3.326818e-002 -3.031758e-003 -2.073346e-002
      vertex  3.506033e-002 -1.209748e-002 -1.927008e-002
      vertex  3.328399e-002 -4.707236e-003 -2.777493e-002
    endloop
  endfacet
  facet normal 9.871045e-001 7.377492e-002 -1.420628e-001
    outer loop
      vertex  3.328399e-002 -4.707236e-003 -2.777493e-002
      vertex  3.506033e-002 -1.209748e-002 -1.927008e-002
      vertex  3.441555e-002 -1.618786e-002 -2.587446e-002
    endloop
  endfacet
  facet normal 7.898030e-001 5.735664e-001 -2.173309e-001
    outer loop
      vertex  3.328399e-002 -4.707236e-003 -2.777493e-002
      vertex  2.830636e-002 4.274405e-004 -3.231302e-002
      vertex  2.905737e-002 3.618399e-003 -2.116241e-002
    endloop
  endfacet
  facet normal 8.420190e-001 5.252188e-001 -1.230823e-001
    outer loop
      vertex  2.905737e-002 3.618399e-003 -2.116241e-002
      vertex  3.326818e-002 -3.031758e-003 -2.073346e-002
      vertex  3.328399e-002 -4.707236e-003 -2.777493e-002
    endloop
  endfacet
  facet normal 8.853940e-001 -4.189163e-001 -2.014612e-001
    outer loop
      vertex  3.441555e-002 -1.618786e-002 -2.587446e-002
      vertex  3.102901e-002 -2.485075e-002 -2.274432e-002
      vertex  3.154318e-002 -1.999436e-002 -3.058294e-002
    endloop
  endfacet
  facet normal 7.690616e-001 -5.647072e-001 -2.994163e-001
    outer loop
      vertex  3.154318e-002 -1.999436e-002 -3.058294e-002
      vertex  3.102901e-002 -2.485075e-002 -2.274432e-002
      vertex  2.645819e-002 -2.618317e-002 -3.197166e-002
    endloop
  endfacet
  facet normal 7.113486e-001 -6.537869e-001 -2.579648e-001
    outer loop
      vertex  2.645819e-002 -2.618317e-002 -3.197166e-002
      vertex  3.102901e-002 -2.485075e-002 -2.274432e-002
      vertex  2.555453e-002 -3.021687e-002 -2.424050e-002
    endloop
  endfacet
  facet normal 9.300718e-001 3.107351e-002 -3.660614e-001
    outer loop
      vertex  3.328399e-002 -4.707236e-003 -2.777493e-002
      vertex  3.441555e-002 -1.618786e-002 -2.587446e-002
      vertex  3.027606e-002 -1.041425e-002 -3.590178e-002
    endloop
  endfacet
  facet normal 8.890437e-001 -1.266690e-001 -4.399503e-001
    outer loop
      vertex  3.027606e-002 -1.041425e-002 -3.590178e-002
      vertex  3.441555e-002 -1.618786e-002 -2.587446e-002
      vertex  3.154318e-002 -1.999436e-002 -3.058294e-002
    endloop
  endfacet
  facet normal 7.961782e-001 3.155411e-001 -5.162694e-001
    outer loop
      vertex  2.830636e-002 4.274405e-004 -3.231302e-002
      vertex  3.328399e-002 -4.707236e-003 -2.777493e-002
      vertex  3.027606e-002 -1.041425e-002 -3.590178e-002
    endloop
  endfacet
  facet normal 7.850924e-001 -2.180267e-001 -5.797363e-001
    outer loop
      vertex  3.027606e-002 -1.041425e-002 -3.590178e-002
      vertex  3.154318e-002 -1.999436e-002 -3.058294e-002
      vertex  2.700207e-002 -2.083072e-002 -3.641808e-002
    endloop
  endfacet
  facet normal 7.230822e-001 -4.833905e-001 -4.934429e-001
    outer loop
      vertex  2.700207e-002 -2.083072e-002 -3.641808e-002
      vertex  3.154318e-002 -1.999436e-002 -3.058294e-002
      vertex  2.645819e-002 -2.618317e-002 -3.197166e-002
    endloop
  endfacet
  facet normal 5.807350e-001 -7.945961e-001 1.770986e-001
    outer loop
      vertex  2.555453e-002 -3.021687e-002 -2.424050e-002
      vertex  2.793584e-002 -2.640462e-002 -1.494458e-002
      vertex  2.172132e-002 -3.113097e-002 -1.577209e-002
    endloop
  endfacet
  facet normal 5.053701e-001 -7.417051e-001 4.409928e-001
    outer loop
      vertex  2.172132e-002 -3.113097e-002 -1.577209e-002
      vertex  2.793584e-002 -2.640462e-002 -1.494458e-002
      vertex  2.444524e-002 -2.534587e-002 -9.163698e-003
    endloop
  endfacet
  facet normal 8.783390e-001 -9.839787e-002 4.678018e-001
    outer loop
      vertex  3.278412e-002 -1.894476e-002 -1.495570e-002
      vertex  3.326370e-002 -9.538224e-003 -1.387758e-002
      vertex  3.028337e-002 -1.112041e-002 -8.614559e-003
    endloop
  endfacet
  facet normal 4.038328e-001 -7.643549e-001 5.026736e-001
    outer loop
      vertex  2.444524e-002 -2.534587e-002 -9.163698e-003
      vertex  1.524884e-002 -3.181489e-002 -1.161225e-002
      vertex  2.172132e-002 -3.113097e-002 -1.577209e-002
    endloop
  endfacet
  facet normal 2.864897e-001 -9.112295e-001 2.959467e-001
    outer loop
      vertex  2.172132e-002 -3.113097e-002 -1.577209e-002
      vertex  1.524884e-002 -3.181489e-002 -1.161225e-002
      vertex  1.600310e-002 -3.481895e-002 -2.159201e-002
    endloop
  endfacet
  facet normal 2.521151e-001 -9.212025e-001 2.963508e-001
    outer loop
      vertex  1.600310e-002 -3.481895e-002 -2.159201e-002
      vertex  1.524884e-002 -3.181489e-002 -1.161225e-002
      vertex  6.117424e-003 -3.598399e-002 -1.680346e-002
    endloop
  endfacet
  facet normal 4.562297e-001 -8.828853e-001 1.112115e-001
    outer loop
      vertex  2.172132e-002 -3.113097e-002 -1.577209e-002
      vertex  1.600310e-002 -3.481895e-002 -2.159201e-002
      vertex  2.555453e-002 -3.021687e-002 -2.424050e-002
    endloop
  endfacet
  facet normal 1.601449e-001 -9.828448e-001 9.148643e-002
    outer loop
      vertex  1.600310e-002 -3.481895e-002 -2.159201e-002
      vertex  6.117424e-003 -3.598399e-002 -1.680346e-002
      vertex  1.047148e-002 -3.607503e-002 -2.540318e-002
    endloop
  endfacet
  facet normal -5.108912e-002 -9.918519e-001 1.167035e-001
    outer loop
      vertex  6.117424e-003 -3.598399e-002 -1.680346e-002
      vertex  -3.741122e-003 -3.550735e-002 -1.706827e-002
      vertex  3.480213e-003 -3.665573e-002 -2.366701e-002
    endloop
  endfacet
  facet normal 9.737124e-002 -9.934490e-001 5.981620e-002
    outer loop
      vertex  1.047148e-002 -3.607503e-002 -2.540318e-002
      vertex  6.117424e-003 -3.598399e-002 -1.680346e-002
      vertex  3.480213e-003 -3.665573e-002 -2.366701e-002
    endloop
  endfacet
  facet normal 3.818343e-001 -9.037733e-001 -1.933815e-001
    outer loop
      vertex  2.555453e-002 -3.021687e-002 -2.424050e-002
      vertex  1.600310e-002 -3.481895e-002 -2.159201e-002
      vertex  1.890021e-002 -3.171836e-002 -3.036230e-002
    endloop
  endfacet
  facet normal 3.502115e-001 -9.134545e-001 -2.072502e-001
    outer loop
      vertex  1.890021e-002 -3.171836e-002 -3.036230e-002
      vertex  1.600310e-002 -3.481895e-002 -2.159201e-002
      vertex  1.047148e-002 -3.607503e-002 -2.540318e-002
    endloop
  endfacet
  facet normal 2.871612e-003 -9.517759e-001 -3.067805e-001
    outer loop
      vertex  1.047148e-002 -3.607503e-002 -2.540318e-002
      vertex  3.480213e-003 -3.665573e-002 -2.366701e-002
      vertex  4.726241e-003 -3.347774e-002 -3.351495e-002
    endloop
  endfacet
  facet normal 5.027513e-001 -7.890956e-001 -3.529436e-001
    outer loop
      vertex  2.555453e-002 -3.021687e-002 -2.424050e-002
      vertex  1.890021e-002 -3.171836e-002 -3.036230e-002
      vertex  2.645819e-002 -2.618317e-002 -3.197166e-002
    endloop
  endfacet
  facet normal 4.158943e-001 -7.268065e-001 -5.466116e-001
    outer loop
      vertex  2.645819e-002 -2.618317e-002 -3.197166e-002
      vertex  1.890021e-002 -3.171836e-002 -3.036230e-002
      vertex  1.750414e-002 -2.887810e-002 -3.520109e-002
    endloop
  endfacet
  facet normal 4.249693e-001 -6.035883e-001 -6.745979e-001
    outer loop
      vertex  2.645819e-002 -2.618317e-002 -3.197166e-002
      vertex  1.750414e-002 -2.887810e-002 -3.520109e-002
      vertex  2.700207e-002 -2.083072e-002 -3.641808e-002
    endloop
  endfacet
  facet normal 3.885550e-003 -9.518102e-001 -3.066633e-001
    outer loop
      vertex  3.480213e-003 -3.665573e-002 -2.366701e-002
      vertex  -3.309584e-003 -3.517305e-002 -2.835494e-002
      vertex  4.726241e-003 -3.347774e-002 -3.351495e-002
    endloop
  endfacet
  facet normal -1.473779e-001 -8.484856e-001 -5.082833e-001
    outer loop
      vertex  -5.692493e-003 -3.100820e-002 -3.461647e-002
      vertex  4.726241e-003 -3.347774e-002 -3.351495e-002
      vertex  -3.309584e-003 -3.517305e-002 -2.835494e-002
    endloop
  endfacet
  facet normal -5.522456e-002 -8.721371e-001 4.861348e-001
    outer loop
      vertex  6.117424e-003 -3.598399e-002 -1.680346e-002
      vertex  -4.570528e-004 -3.305076e-002 -1.228804e-002
      vertex  -3.741122e-003 -3.550735e-002 -1.706827e-002
    endloop
  endfacet
  facet normal -3.523333e-001 -9.168280e-001 1.878500e-001
    outer loop
      vertex  -1.425424e-002 -2.769580e-002 -1.030807e-002
      vertex  -5.985829e-003 -3.057497e-002 -8.851933e-003
      vertex  -1.098844e-002 -2.727045e-002 -2.106710e-003
    endloop
  endfacet
  facet normal -3.766379e-001 -9.246414e-001 -5.640956e-002
    outer loop
      vertex  -1.025956e-002 -2.873714e-002 6.426516e-003
      vertex  -2.696058e-003 -3.210184e-002 1.107890e-002
      vertex  -1.636648e-002 -2.637574e-002 8.494406e-003
    endloop
  endfacet
  facet normal -4.790680e-001 -8.458372e-001 2.346343e-001
    outer loop
      vertex  -1.788329e-002 -2.266424e-002 4.206378e-004
      vertex  -1.425424e-002 -2.769580e-002 -1.030807e-002
      vertex  -1.098844e-002 -2.727045e-002 -2.106710e-003
    endloop
  endfacet
  facet normal -3.619878e-001 -7.864553e-001 5.004526e-001
    outer loop
      vertex  -1.419880e-002 -3.184253e-002 -1.678450e-002
      vertex  -5.985829e-003 -3.057497e-002 -8.851933e-003
      vertex  -1.425424e-002 -2.769580e-002 -1.030807e-002
    endloop
  endfacet
  facet normal -4.321144e-001 -8.474503e-001 -3.083911e-001
    outer loop
      vertex  -1.788329e-002 -2.266424e-002 4.206378e-004
      vertex  -1.025956e-002 -2.873714e-002 6.426516e-003
      vertex  -1.636648e-002 -2.637574e-002 8.494406e-003
    endloop
  endfacet
  facet normal -2.099764e-001 -7.720504e-001 -5.998734e-001
    outer loop
      vertex  -2.696058e-003 -3.210184e-002 1.107890e-002
      vertex  -8.238859e-003 -3.344078e-002 1.474232e-002
      vertex  -1.636648e-002 -2.637574e-002 8.494406e-003
    endloop
  endfacet
  facet normal -3.345884e-001 -8.103299e-001 -4.810572e-001
    outer loop
      vertex  -1.636648e-002 -2.637574e-002 8.494406e-003
      vertex  -8.238859e-003 -3.344078e-002 1.474232e-002
      vertex  -1.576044e-002 -3.090219e-002 1.569759e-002
    endloop
  endfacet
  facet normal -7.775185e-002 -8.640100e-001 4.974347e-001
    outer loop
      vertex  -3.741122e-003 -3.550735e-002 -1.706827e-002
      vertex  -4.570528e-004 -3.305076e-002 -1.228804e-002
      vertex  -5.985829e-003 -3.057497e-002 -8.851933e-003
    endloop
  endfacet
  facet normal -9.988892e-001 4.607925e-002 -9.853554e-003
    outer loop
      vertex  2.771419e-002 8.982705e-005 3.281492e-002
      vertex  2.796791e-002 3.972318e-003 2.525053e-002
      vertex  2.730686e-002 -8.156884e-003 3.554208e-002
    endloop
  endfacet
  facet normal 4.153175e-001 3.533567e-001 8.382425e-001
    outer loop
      vertex  2.707421e-002 -6.116413e-003 -9.133947e-003
      vertex  3.028337e-002 -1.112041e-002 -8.614559e-003
      vertex  2.941807e-002 -4.793535e-004 -1.267151e-002
    endloop
  endfacet
  facet normal 6.910055e-001 -3.088181e-001 6.535615e-001
    outer loop
      vertex  3.028337e-002 -1.112041e-002 -8.614559e-003
      vertex  2.444524e-002 -2.534587e-002 -9.163698e-003
      vertex  3.278412e-002 -1.894476e-002 -1.495570e-002
    endloop
  endfacet
endsolid vcg
