solid STL generated by MeshLab
  facet normal 1.922994e-001 9.754938e-001 -1.069240e-001
    outer loop
      vertex  1.402280e-002 8.653520e-003 7.948224e-003
      vertex  3.713459e-003 1.052837e-002 6.511888e-003
      vertex  1.719557e-002 8.570626e-003 1.289808e-002
    endloop
  endfacet
  facet normal 8.317229e-002 9.315442e-001 3.539882e-001
    outer loop
      vertex  3.713459e-003 1.052837e-002 6.511888e-003
      vertex  -6.947967e-003 1.170692e-002 5.915427e-003
      vertex  5.152932e-003 5.984750e-003 1.813051e-002
    endloop
  endfacet
  facet normal -3.950124e-002 9.289224e-001 3.681613e-001
    outer loop
      vertex  1.719557e-002 8.570626e-003 1.289808e-002
      vertex  3.713459e-003 1.052837e-002 6.511888e-003
      vertex  5.152932e-003 5.984750e-003 1.813051e-002
    endloop
  endfacet
  facet normal 6.667916e-002 9.210012e-001 -3.838107e-001
    outer loop
      vertex  -5.513763e-003 1.101023e-002 -7.336878e-003
      vertex  1.124140e-002 9.123672e-003 -8.953041e-003
      vertex  -6.391944e-003 7.760383e-003 -1.528785e-002
    endloop
  endfacet
  facet normal -9.582125e-002 9.621873e-001 2.549783e-001
    outer loop
      vertex  1.719557e-002 8.570626e-003 1.289808e-002
      vertex  5.152932e-003 5.984750e-003 1.813051e-002
      vertex  1.726037e-002 6.730869e-003 1.986495e-002
    endloop
  endfacet
  facet normal 9.393097e-002 9.953294e-001 2.227709e-002
    outer loop
      vertex  5.152932e-003 5.984750e-003 1.813051e-002
      vertex  -7.563539e-003 7.201421e-003 1.738902e-002
      vertex  1.889730e-003 6.125850e-003 2.558545e-002
    endloop
  endfacet
  facet normal 6.728975e-002 9.274630e-001 3.678104e-001
    outer loop
      vertex  -6.947967e-003 1.170692e-002 5.915427e-003
      vertex  -7.563539e-003 7.201421e-003 1.738902e-002
      vertex  5.152932e-003 5.984750e-003 1.813051e-002
    endloop
  endfacet
  facet normal 3.562661e-001 9.307219e-001 8.265153e-002
    outer loop
      vertex  -7.563539e-003 7.201421e-003 1.738902e-002
      vertex  -1.919110e-002 1.173506e-002 1.645676e-002
      vertex  -1.139901e-002 7.923441e-003 2.579113e-002
    endloop
  endfacet
  facet normal 3.978575e-001 9.164800e-001 4.211654e-002
    outer loop
      vertex  -2.064396e-002 1.199552e-002 2.451360e-002
      vertex  -1.139901e-002 7.923441e-003 2.579113e-002
      vertex  -1.919110e-002 1.173506e-002 1.645676e-002
    endloop
  endfacet
  facet normal 2.487631e-001 8.986025e-001 -3.614281e-001
    outer loop
      vertex  -1.139901e-002 7.923441e-003 2.579113e-002
      vertex  -1.306414e-002 1.175670e-002 3.417552e-002
      vertex  -6.410905e-003 9.224333e-003 3.245868e-002
    endloop
  endfacet
  facet normal 3.133742e-001 8.780811e-001 3.616216e-001
    outer loop
      vertex  -1.919110e-002 1.173506e-002 1.645676e-002
      vertex  -7.563539e-003 7.201421e-003 1.738902e-002
      vertex  -6.947967e-003 1.170692e-002 5.915427e-003
    endloop
  endfacet
  facet normal 1.336451e-001 9.907355e-001 -2.412958e-002
    outer loop
      vertex  -7.563539e-003 7.201421e-003 1.738902e-002
      vertex  -1.139901e-002 7.923441e-003 2.579113e-002
      vertex  1.889730e-003 6.125850e-003 2.558545e-002
    endloop
  endfacet
  facet normal 4.188327e-001 8.544293e-001 -3.074569e-001
    outer loop
      vertex  -1.139901e-002 7.923441e-003 2.579113e-002
      vertex  -2.064396e-002 1.199552e-002 2.451360e-002
      vertex  -1.306414e-002 1.175670e-002 3.417552e-002
    endloop
  endfacet
  facet normal -5.285326e-002 9.977179e-001 -4.201906e-002
    outer loop
      vertex  5.152932e-003 5.984750e-003 1.813051e-002
      vertex  1.889730e-003 6.125850e-003 2.558545e-002
      vertex  1.606648e-002 6.948786e-003 2.729348e-002
    endloop
  endfacet
  facet normal 4.477876e-002 9.298839e-001 -3.651175e-001
    outer loop
      vertex  1.889730e-003 6.125850e-003 2.558545e-002
      vertex  -6.410905e-003 9.224333e-003 3.245868e-002
      vertex  1.056611e-002 8.727334e-003 3.327502e-002
    endloop
  endfacet
  facet normal -1.907585e-002 9.534233e-001 -3.010320e-001
    outer loop
      vertex  1.606648e-002 6.948786e-003 2.729348e-002
      vertex  1.889730e-003 6.125850e-003 2.558545e-002
      vertex  1.056611e-002 8.727334e-003 3.327502e-002
    endloop
  endfacet
  facet normal 5.025155e-002 8.468175e-001 -5.295044e-001
    outer loop
      vertex  1.056611e-002 8.727334e-003 3.327502e-002
      vertex  -6.410905e-003 9.224333e-003 3.245868e-002
      vertex  9.810826e-004 1.184364e-002 3.734917e-002
    endloop
  endfacet
  facet normal -5.600094e-002 9.976971e-001 -3.826783e-002
    outer loop
      vertex  1.726037e-002 6.730869e-003 1.986495e-002
      vertex  5.152932e-003 5.984750e-003 1.813051e-002
      vertex  1.606648e-002 6.948786e-003 2.729348e-002
    endloop
  endfacet
  facet normal 1.244904e-001 9.522119e-001 -2.789173e-001
    outer loop
      vertex  -1.139901e-002 7.923441e-003 2.579113e-002
      vertex  -6.410905e-003 9.224333e-003 3.245868e-002
      vertex  1.889730e-003 6.125850e-003 2.558545e-002
    endloop
  endfacet
  facet normal 1.349862e-001 7.740276e-001 -6.185953e-001
    outer loop
      vertex  -6.410905e-003 9.224333e-003 3.245868e-002
      vertex  -1.306414e-002 1.175670e-002 3.417552e-002
      vertex  9.810826e-004 1.184364e-002 3.734917e-002
    endloop
  endfacet
  facet normal -2.289109e-001 9.406563e-001 2.505305e-001
    outer loop
      vertex  2.533220e-002 9.091861e-003 1.837550e-002
      vertex  1.719557e-002 8.570626e-003 1.289808e-002
      vertex  1.726037e-002 6.730869e-003 1.986495e-002
    endloop
  endfacet
  facet normal -3.068438e-001 9.473858e-001 -9.114271e-002
    outer loop
      vertex  1.606648e-002 6.948786e-003 2.729348e-002
      vertex  2.115635e-002 8.861659e-003 3.004121e-002
      vertex  2.533220e-002 9.091861e-003 1.837550e-002
    endloop
  endfacet
  facet normal -2.926682e-001 9.532682e-001 -7.500080e-002
    outer loop
      vertex  1.726037e-002 6.730869e-003 1.986495e-002
      vertex  1.606648e-002 6.948786e-003 2.729348e-002
      vertex  2.533220e-002 9.091861e-003 1.837550e-002
    endloop
  endfacet
  facet normal -1.307015e-001 9.863357e-001 1.002949e-001
    outer loop
      vertex  1.402280e-002 8.653520e-003 7.948224e-003
      vertex  1.719557e-002 8.570626e-003 1.289808e-002
      vertex  2.533220e-002 9.091861e-003 1.837550e-002
    endloop
  endfacet
  facet normal -1.310542e-001 9.108632e-001 -3.913479e-001
    outer loop
      vertex  2.115635e-002 8.861659e-003 3.004121e-002
      vertex  1.606648e-002 6.948786e-003 2.729348e-002
      vertex  1.056611e-002 8.727334e-003 3.327502e-002
    endloop
  endfacet
  facet normal -7.706821e-003 9.998376e-001 1.629217e-002
    outer loop
      vertex  2.115635e-002 8.861659e-003 3.004121e-002
      vertex  1.056611e-002 8.727334e-003 3.327502e-002
      vertex  1.216066e-002 8.659889e-003 3.816837e-002
    endloop
  endfacet
  facet normal 1.349763e-002 9.746402e-001 -2.233704e-001
    outer loop
      vertex  1.975435e-002 8.871868e-003 -9.537333e-003
      vertex  1.673026e-002 6.742159e-003 -1.901271e-002
      vertex  1.124140e-002 9.123672e-003 -8.953041e-003
    endloop
  endfacet
  facet normal -2.883155e-001 9.573355e-001 1.956739e-002
    outer loop
      vertex  2.307326e-002 8.874290e-003 -2.986651e-002
      vertex  1.652385e-002 6.822042e-003 -2.596236e-002
      vertex  1.673026e-002 6.742159e-003 -1.901271e-002
    endloop
  endfacet
  facet normal -9.564751e-002 9.381687e-001 3.327028e-001
    outer loop
      vertex  2.307326e-002 8.874290e-003 -2.986651e-002
      vertex  1.223410e-002 8.778977e-003 -3.271385e-002
      vertex  1.652385e-002 6.822042e-003 -2.596236e-002
    endloop
  endfacet
  facet normal -4.215116e-001 9.042163e-001 -6.870762e-002
    outer loop
      vertex  1.975435e-002 8.871868e-003 -9.537333e-003
      vertex  2.307326e-002 8.874290e-003 -2.986651e-002
      vertex  1.673026e-002 6.742159e-003 -1.901271e-002
    endloop
  endfacet
  facet normal 9.236515e-002 9.852594e-001 -1.439885e-001
    outer loop
      vertex  6.535816e-003 6.213685e-003 -1.757848e-002
      vertex  -7.676465e-003 6.827326e-003 -2.249640e-002
      vertex  -6.391944e-003 7.760383e-003 -1.528785e-002
    endloop
  endfacet
  facet normal -8.829883e-002 9.574273e-001 -2.748386e-001
    outer loop
      vertex  1.124140e-002 9.123672e-003 -8.953041e-003
      vertex  1.673026e-002 6.742159e-003 -1.901271e-002
      vertex  6.535816e-003 6.213685e-003 -1.757848e-002
    endloop
  endfacet
  facet normal 5.117529e-002 9.374989e-001 -3.442051e-001
    outer loop
      vertex  -6.391944e-003 7.760383e-003 -1.528785e-002
      vertex  1.124140e-002 9.123672e-003 -8.953041e-003
      vertex  6.535816e-003 6.213685e-003 -1.757848e-002
    endloop
  endfacet
  facet normal 3.745662e-002 9.991632e-001 1.642626e-002
    outer loop
      vertex  -7.676465e-003 6.827326e-003 -2.249640e-002
      vertex  6.535816e-003 6.213685e-003 -1.757848e-002
      vertex  5.846982e-003 6.409090e-003 -2.789367e-002
    endloop
  endfacet
  facet normal 3.240457e-001 8.769515e-001 3.548949e-001
    outer loop
      vertex  -1.151431e-002 1.185727e-002 -3.507162e-002
      vertex  -1.977336e-002 1.132923e-002 -2.622569e-002
      vertex  -7.143877e-003 8.389146e-003 -3.049235e-002
    endloop
  endfacet
  facet normal 2.862844e-001 9.366067e-001 2.020126e-001
    outer loop
      vertex  -7.143877e-003 8.389146e-003 -3.049235e-002
      vertex  -1.977336e-002 1.132923e-002 -2.622569e-002
      vertex  -7.676465e-003 6.827326e-003 -2.249640e-002
    endloop
  endfacet
  facet normal 3.667333e-001 9.277130e-001 -6.967970e-002
    outer loop
      vertex  -1.977336e-002 1.132923e-002 -2.622569e-002
      vertex  -1.737509e-002 1.125772e-002 -1.455545e-002
      vertex  -7.676465e-003 6.827326e-003 -2.249640e-002
    endloop
  endfacet
  facet normal 2.883173e-001 9.417272e-001 -1.732713e-001
    outer loop
      vertex  -1.737509e-002 1.125772e-002 -1.455545e-002
      vertex  -6.391944e-003 7.760383e-003 -1.528785e-002
      vertex  -7.676465e-003 6.827326e-003 -2.249640e-002
    endloop
  endfacet
  facet normal 2.557069e-001 8.846694e-001 -3.898386e-001
    outer loop
      vertex  -6.391944e-003 7.760383e-003 -1.528785e-002
      vertex  -1.737509e-002 1.125772e-002 -1.455545e-002
      vertex  -5.513763e-003 1.101023e-002 -7.336878e-003
    endloop
  endfacet
  facet normal 2.783178e-001 9.573576e-001 -7.749717e-002
    outer loop
      vertex  1.056611e-002 8.727334e-003 3.327502e-002
      vertex  9.810826e-004 1.184364e-002 3.734917e-002
      vertex  1.216066e-002 8.659889e-003 3.816837e-002
    endloop
  endfacet
  facet normal -1.417783e-002 9.996892e-001 2.050784e-002
    outer loop
      vertex  1.223410e-002 8.778977e-003 -3.271385e-002
      vertex  2.307326e-002 8.874290e-003 -2.986651e-002
      vertex  1.124858e-002 8.873628e-003 -3.800911e-002
    endloop
  endfacet
  facet normal 2.692928e-001 9.624957e-001 -3.291471e-002
    outer loop
      vertex  1.223410e-002 8.778977e-003 -3.271385e-002
      vertex  1.124858e-002 8.873628e-003 -3.800911e-002
      vertex  1.784989e-003 1.155247e-002 -3.710081e-002
    endloop
  endfacet
  facet normal 3.923810e-002 8.796138e-001 4.740673e-001
    outer loop
      vertex  1.784989e-003 1.155247e-002 -3.710081e-002
      vertex  -7.143877e-003 8.389146e-003 -3.049235e-002
      vertex  5.846982e-003 6.409090e-003 -2.789367e-002
    endloop
  endfacet
  facet normal 1.089720e-001 9.742174e-001 1.975487e-001
    outer loop
      vertex  5.846982e-003 6.409090e-003 -2.789367e-002
      vertex  -7.143877e-003 8.389146e-003 -3.049235e-002
      vertex  -7.676465e-003 6.827326e-003 -2.249640e-002
    endloop
  endfacet
  facet normal -9.654657e-002 9.379013e-001 3.331965e-001
    outer loop
      vertex  1.652385e-002 6.822042e-003 -2.596236e-002
      vertex  1.223410e-002 8.778977e-003 -3.271385e-002
      vertex  5.846982e-003 6.409090e-003 -2.789367e-002
    endloop
  endfacet
  facet normal -4.864690e-002 9.985701e-001 2.216489e-002
    outer loop
      vertex  6.535816e-003 6.213685e-003 -1.757848e-002
      vertex  1.673026e-002 6.742159e-003 -1.901271e-002
      vertex  5.846982e-003 6.409090e-003 -2.789367e-002
    endloop
  endfacet
  facet normal 1.011939e-001 8.371894e-001 5.374698e-001
    outer loop
      vertex  -1.151431e-002 1.185727e-002 -3.507162e-002
      vertex  -7.143877e-003 8.389146e-003 -3.049235e-002
      vertex  1.784989e-003 1.155247e-002 -3.710081e-002
    endloop
  endfacet
  facet normal 3.331760e-002 8.787172e-001 4.761785e-001
    outer loop
      vertex  1.784989e-003 1.155247e-002 -3.710081e-002
      vertex  5.846982e-003 6.409090e-003 -2.789367e-002
      vertex  1.223410e-002 8.778977e-003 -3.271385e-002
    endloop
  endfacet
  facet normal -4.093895e-002 9.990809e-001 1.269993e-002
    outer loop
      vertex  5.846982e-003 6.409090e-003 -2.789367e-002
      vertex  1.673026e-002 6.742159e-003 -1.901271e-002
      vertex  1.652385e-002 6.822042e-003 -2.596236e-002
    endloop
  endfacet
endsolid vcg
